<svg width="42" height="42" viewBox="0 0 42 42" fill="none" xmlns="http://www.w3.org/2000/svg">
<g id="google">
<path id="vector" d="M39.3253 21.1315C39.3253 19.6402 39.2018 18.5519 38.9345 17.4234H21.5579V24.1543H31.7576C31.552 25.8271 30.4416 28.3462 27.9738 30.0389L27.9392 30.2643L33.4334 34.4354L33.8141 34.4727C37.3099 31.3086 39.3253 26.6533 39.3253 21.1315Z" fill="#4285F4"/>
<path id="vector_2" d="M21.5567 38.8662C26.5537 38.8662 30.7487 37.2539 33.8129 34.4728L27.9727 30.0391C26.4098 31.1072 24.3123 31.8528 21.5567 31.8528C16.6625 31.8528 12.5086 28.6889 11.0279 24.3157L10.8108 24.3338L5.0979 28.6667L5.02319 28.8702C8.06664 34.7952 14.3181 38.8662 21.5567 38.8662Z" fill="#34A853"/>
<path id="vector_3" d="M11.029 24.3158C10.6383 23.1873 10.4121 21.978 10.4121 20.7286C10.4121 19.479 10.6383 18.2699 11.0084 17.1414L10.9981 16.901L5.21354 12.4985L5.02428 12.5868C3.76992 15.0454 3.05017 17.8064 3.05017 20.7286C3.05017 23.6507 3.76992 26.4116 5.02428 28.8703L11.029 24.3158Z" fill="#FBBC05"/>
<path id="vector_4" d="M21.5568 9.60424C25.0321 9.60424 27.3764 11.0754 28.7131 12.3048L33.9364 7.30686C30.7285 4.38471 26.5539 2.59109 21.5568 2.59109C14.3182 2.59109 8.06666 6.66194 5.02319 12.5868L11.0073 17.1414C12.5087 12.7683 16.6626 9.60424 21.5568 9.60424Z" fill="#EB4335"/>
</g>
</svg>
